<svg xmlns="http://www.w3.org/2000/svg" xmlns:xlink="http://www.w3.org/1999/xlink" width="390" zoomAndPan="magnify" viewBox="0 0 292.5 61.499998" height="82" preserveAspectRatio="xMidYMid meet" version="1.0"><defs><g/><clipPath id="1f0bb977cd"><path d="M 1 6 L 44 6 L 44 48 L 1 48 Z M 1 6 " clip-rule="nonzero"/></clipPath><clipPath id="e075b46a49"><path d="M 0.929688 9.699219 L 40.410156 6.097656 L 43.929688 44.671875 L 4.449219 48.273438 Z M 0.929688 9.699219 " clip-rule="nonzero"/></clipPath><clipPath id="13c0b92636"><path d="M 6.859375 9.160156 L 34.472656 6.640625 C 36.042969 6.496094 37.609375 6.984375 38.820312 7.996094 C 40.035156 9.003906 40.796875 10.457031 40.9375 12.027344 L 43.375 38.746094 C 43.519531 40.320312 43.03125 41.882812 42.023438 43.097656 C 41.011719 44.308594 39.5625 45.070312 37.988281 45.214844 L 10.378906 47.734375 C 8.804688 47.878906 7.242188 47.390625 6.027344 46.378906 C 4.816406 45.371094 4.054688 43.917969 3.910156 42.347656 L 1.472656 15.628906 C 1.328125 14.054688 1.816406 12.492188 2.824219 11.277344 C 3.835938 10.066406 5.285156 9.304688 6.859375 9.160156 Z M 6.859375 9.160156 " clip-rule="nonzero"/></clipPath><clipPath id="6a899e3c5c"><path d="M 38 7 L 83 7 L 83 51 L 38 51 Z M 38 7 " clip-rule="nonzero"/></clipPath><clipPath id="163ca2edff"><path d="M 37.140625 13.167969 L 76.148438 6.097656 L 83.054688 44.210938 L 44.046875 51.28125 Z M 37.140625 13.167969 " clip-rule="nonzero"/></clipPath><clipPath id="0dc4e3f0ed"><path d="M 42.996094 12.105469 L 70.28125 7.160156 C 71.832031 6.878906 73.433594 7.226562 74.730469 8.125 C 76.027344 9.027344 76.917969 10.402344 77.199219 11.957031 L 81.980469 38.355469 C 82.261719 39.910156 81.914062 41.511719 81.015625 42.808594 C 80.117188 44.105469 78.738281 44.992188 77.1875 45.273438 L 49.902344 50.21875 C 48.351562 50.5 46.75 50.152344 45.453125 49.253906 C 44.15625 48.355469 43.265625 46.976562 42.984375 45.421875 L 38.203125 19.023438 C 37.921875 17.46875 38.269531 15.867188 39.167969 14.570312 C 40.066406 13.273438 41.445312 12.386719 42.996094 12.105469 Z M 42.996094 12.105469 " clip-rule="nonzero"/></clipPath><clipPath id="9d4eaf7daf"><path d="M 75 9 L 118 9 L 118 51 L 75 51 Z M 75 9 " clip-rule="nonzero"/></clipPath><clipPath id="1ba5d80b0e"><path d="M 78.769531 8.445312 L 118.175781 12.777344 L 113.941406 51.28125 L 74.535156 46.949219 Z M 78.769531 8.445312 " clip-rule="nonzero"/></clipPath><clipPath id="971a4c5d00"><path d="M 84.6875 9.097656 L 112.246094 12.128906 C 113.816406 12.300781 115.253906 13.089844 116.238281 14.320312 C 117.226562 15.550781 117.683594 17.125 117.511719 18.695312 L 114.578125 45.363281 C 114.40625 46.933594 113.617188 48.371094 112.386719 49.355469 C 111.15625 50.34375 109.582031 50.800781 108.011719 50.628906 L 80.453125 47.597656 C 78.882812 47.425781 77.445312 46.636719 76.460938 45.40625 C 75.472656 44.175781 75.015625 42.601562 75.1875 41.03125 L 78.121094 14.363281 C 78.292969 12.792969 79.082031 11.355469 80.3125 10.367188 C 81.542969 9.382812 83.117188 8.921875 84.6875 9.097656 Z M 84.6875 9.097656 " clip-rule="nonzero"/></clipPath><clipPath id="2077b6d644"><path d="M 108 7 L 153 7 L 153 51 L 108 51 Z M 108 7 " clip-rule="nonzero"/></clipPath><clipPath id="ce4b7e95f4"><path d="M 107.328125 13.167969 L 146.332031 6.097656 L 153.238281 44.210938 L 114.234375 51.28125 Z M 107.328125 13.167969 " clip-rule="nonzero"/></clipPath><clipPath id="8b403c797e"><path d="M 113.183594 12.105469 L 140.464844 7.160156 C 142.019531 6.878906 143.621094 7.226562 144.917969 8.125 C 146.214844 9.027344 147.101562 10.402344 147.382812 11.957031 L 152.167969 38.355469 C 152.449219 39.910156 152.101562 41.511719 151.203125 42.808594 C 150.304688 44.105469 148.925781 44.992188 147.371094 45.273438 L 120.089844 50.21875 C 118.535156 50.5 116.933594 50.152344 115.636719 49.253906 C 114.339844 48.355469 113.453125 46.976562 113.171875 45.421875 L 108.386719 19.023438 C 108.105469 17.46875 108.453125 15.867188 109.351562 14.570312 C 110.253906 13.273438 111.628906 12.386719 113.183594 12.105469 Z M 113.183594 12.105469 " clip-rule="nonzero"/></clipPath><clipPath id="f8a411df93"><path d="M 142 9 L 186 9 L 186 52 L 142 52 Z M 142 9 " clip-rule="nonzero"/></clipPath><clipPath id="242af381ea"><path d="M 146.539062 8.445312 L 185.824219 13.761719 L 180.628906 52.144531 L 141.347656 46.828125 Z M 146.539062 8.445312 " clip-rule="nonzero"/></clipPath><clipPath id="fd68195c59"><path d="M 152.4375 9.242188 L 179.914062 12.960938 C 181.480469 13.171875 182.894531 13.996094 183.851562 15.253906 C 184.808594 16.507812 185.226562 18.09375 185.015625 19.65625 L 181.417969 46.246094 C 181.207031 47.8125 180.382812 49.226562 179.125 50.183594 C 177.871094 51.140625 176.285156 51.558594 174.722656 51.347656 L 147.246094 47.628906 C 145.679688 47.417969 144.265625 46.59375 143.308594 45.335938 C 142.351562 44.082031 141.933594 42.496094 142.144531 40.933594 L 145.742188 14.34375 C 145.953125 12.78125 146.777344 11.363281 148.035156 10.40625 C 149.289062 9.449219 150.875 9.03125 152.4375 9.242188 Z M 152.4375 9.242188 " clip-rule="nonzero"/></clipPath><clipPath id="10e4c1ecaf"><path d="M 178 8 L 221 8 L 221 51 L 178 51 Z M 178 8 " clip-rule="nonzero"/></clipPath><clipPath id="bd23eb5f89"><path d="M 177.652344 12.046875 L 217.128906 8.445312 L 220.648438 47.019531 L 181.167969 50.621094 Z M 177.652344 12.046875 " clip-rule="nonzero"/></clipPath><clipPath id="72d27ad073"><path d="M 183.578125 11.503906 L 211.191406 8.984375 C 212.761719 8.84375 214.328125 9.328125 215.539062 10.339844 C 216.753906 11.351562 217.515625 12.800781 217.65625 14.371094 L 220.09375 41.09375 C 220.238281 42.664062 219.753906 44.230469 218.742188 45.441406 C 217.730469 46.65625 216.28125 47.417969 214.710938 47.558594 L 187.097656 50.078125 C 185.523438 50.222656 183.960938 49.734375 182.746094 48.726562 C 181.535156 47.714844 180.773438 46.265625 180.628906 44.691406 L 178.191406 17.972656 C 178.046875 16.402344 178.535156 14.835938 179.546875 13.625 C 180.554688 12.410156 182.007812 11.648438 183.578125 11.503906 Z M 183.578125 11.503906 " clip-rule="nonzero"/></clipPath><clipPath id="a796d76408"><path d="M 212 9 L 257 9 L 257 53 L 212 53 Z M 212 9 " clip-rule="nonzero"/></clipPath><clipPath id="183b7018be"><path d="M 218.257812 8.578125 L 257.398438 14.882812 L 251.234375 53.125 L 212.097656 46.816406 Z M 218.257812 8.578125 " clip-rule="nonzero"/></clipPath><clipPath id="3842ceaac8"><path d="M 224.136719 9.523438 L 251.507812 13.933594 C 253.066406 14.183594 254.460938 15.046875 255.386719 16.324219 C 256.3125 17.605469 256.691406 19.199219 256.4375 20.757812 L 252.171875 47.246094 C 251.917969 48.804688 251.058594 50.199219 249.78125 51.125 C 248.5 52.046875 246.90625 52.425781 245.347656 52.175781 L 217.972656 47.765625 C 216.414062 47.511719 215.019531 46.652344 214.097656 45.375 C 213.171875 44.09375 212.792969 42.5 213.046875 40.941406 L 217.3125 14.453125 C 217.5625 12.894531 218.425781 11.5 219.703125 10.574219 C 220.984375 9.652344 222.578125 9.273438 224.136719 9.523438 Z M 224.136719 9.523438 " clip-rule="nonzero"/></clipPath><clipPath id="bd4e25714a"><path d="M 248 11 L 291 11 L 291 53 L 248 53 Z M 248 11 " clip-rule="nonzero"/></clipPath><clipPath id="2dd941e084"><path d="M 248.085938 14.328125 L 287.566406 10.726562 L 291.085938 49.300781 L 251.605469 52.902344 Z M 248.085938 14.328125 " clip-rule="nonzero"/></clipPath><clipPath id="e0bdc2358d"><path d="M 254.015625 13.785156 L 281.625 11.265625 C 283.199219 11.125 284.761719 11.609375 285.976562 12.621094 C 287.1875 13.632812 287.953125 15.082031 288.09375 16.652344 L 290.53125 43.375 C 290.675781 44.945312 290.1875 46.511719 289.179688 47.722656 C 288.167969 48.9375 286.71875 49.699219 285.144531 49.839844 L 257.53125 52.359375 C 255.960938 52.503906 254.398438 52.015625 253.183594 51.007812 C 251.972656 49.996094 251.207031 48.546875 251.066406 46.972656 L 248.628906 20.253906 C 248.484375 18.683594 248.972656 17.117188 249.980469 15.90625 C 250.992188 14.691406 252.441406 13.929688 254.015625 13.785156 Z M 254.015625 13.785156 " clip-rule="nonzero"/></clipPath></defs><g clip-path="url(#1f0bb977cd)"><g clip-path="url(#e075b46a49)"><g clip-path="url(#13c0b92636)"><path fill="#f68484" d="M 0.929688 9.699219 L 40.410156 6.097656 L 43.929688 44.671875 L 4.449219 48.273438 Z M 0.929688 9.699219 " fill-opacity="1" fill-rule="nonzero"/></g></g></g><g clip-path="url(#6a899e3c5c)"><g clip-path="url(#163ca2edff)"><g clip-path="url(#0dc4e3f0ed)"><path fill="#9cdbc8" d="M 37.140625 13.167969 L 76.148438 6.097656 L 83.054688 44.210938 L 44.046875 51.28125 Z M 37.140625 13.167969 " fill-opacity="1" fill-rule="nonzero"/></g></g></g><g clip-path="url(#9d4eaf7daf)"><g clip-path="url(#1ba5d80b0e)"><g clip-path="url(#971a4c5d00)"><path fill="#84a7f6" d="M 78.769531 8.445312 L 118.175781 12.777344 L 113.941406 51.28125 L 74.535156 46.949219 Z M 78.769531 8.445312 " fill-opacity="1" fill-rule="nonzero"/></g></g></g><g clip-path="url(#2077b6d644)"><g clip-path="url(#ce4b7e95f4)"><g clip-path="url(#8b403c797e)"><path fill="#f6cc84" d="M 107.328125 13.167969 L 146.332031 6.097656 L 153.238281 44.210938 L 114.234375 51.28125 Z M 107.328125 13.167969 " fill-opacity="1" fill-rule="nonzero"/></g></g></g><g clip-path="url(#f8a411df93)"><g clip-path="url(#242af381ea)"><g clip-path="url(#fd68195c59)"><path fill="#bd84f6" d="M 146.539062 8.445312 L 185.824219 13.761719 L 180.628906 52.144531 L 141.347656 46.828125 Z M 146.539062 8.445312 " fill-opacity="1" fill-rule="nonzero"/></g></g></g><g clip-path="url(#10e4c1ecaf)"><g clip-path="url(#bd23eb5f89)"><g clip-path="url(#72d27ad073)"><path fill="#f684a3" d="M 177.652344 12.046875 L 217.128906 8.445312 L 220.648438 47.019531 L 181.167969 50.621094 Z M 177.652344 12.046875 " fill-opacity="1" fill-rule="nonzero"/></g></g></g><g fill="#ffffff" fill-opacity="1"><g transform="translate(14.130784, 41.778763)"><g><path d="M 13.84375 -7.1875 C 14.238281 -7.238281 14.664062 -7.21875 15.125 -7.125 C 15.59375 -7.03125 15.984375 -6.710938 16.296875 -6.171875 C 16.796875 -5.347656 16.691406 -4.472656 15.984375 -3.546875 C 15.546875 -2.992188 15.019531 -2.523438 14.40625 -2.140625 C 11.757812 -0.554688 8.769531 0.0546875 5.4375 -0.296875 C 3.46875 -0.515625 2.097656 -1.65625 1.328125 -3.71875 C 0.847656 -5.019531 0.578125 -6.347656 0.515625 -7.703125 C 0.460938 -9.054688 0.46875 -10.335938 0.53125 -11.546875 C 0.601562 -12.554688 0.675781 -13.5625 0.75 -14.5625 C 0.832031 -15.570312 0.910156 -16.578125 0.984375 -17.578125 C 1.035156 -18.054688 1.078125 -18.53125 1.109375 -19 C 1.140625 -19.46875 1.179688 -19.945312 1.234375 -20.4375 L 1.25 -20.5625 C 1.257812 -20.695312 1.269531 -20.832031 1.28125 -20.96875 C 1.289062 -21.113281 1.265625 -21.257812 1.203125 -21.40625 C 0.859375 -22.570312 1.296875 -23.5625 2.515625 -24.375 C 2.742188 -24.519531 2.976562 -24.65625 3.21875 -24.78125 C 3.457031 -24.914062 3.703125 -25.015625 3.953125 -25.078125 L 5.328125 -25.40625 C 6.316406 -25.625 7.316406 -25.847656 8.328125 -26.078125 C 9.335938 -26.304688 10.347656 -26.488281 11.359375 -26.625 C 11.441406 -26.625 11.523438 -26.628906 11.609375 -26.640625 C 12.628906 -26.734375 13.476562 -26.519531 14.15625 -26 C 14.769531 -25.550781 15.117188 -24.957031 15.203125 -24.21875 C 15.296875 -23.394531 15.046875 -22.6875 14.453125 -22.09375 C 13.867188 -21.5 13.054688 -21.128906 12.015625 -20.984375 C 11.359375 -20.878906 10.691406 -20.804688 10.015625 -20.765625 C 9.335938 -20.722656 8.664062 -20.691406 8 -20.671875 L 7.171875 -20.640625 C 6.753906 -20.617188 6.425781 -20.59375 6.1875 -20.5625 C 5.945312 -20.53125 5.757812 -20.4375 5.625 -20.28125 C 5.476562 -20.125 5.40625 -19.925781 5.40625 -19.6875 C 5.40625 -19.445312 5.425781 -19.125 5.46875 -18.71875 C 5.5 -18.300781 5.535156 -17.890625 5.578125 -17.484375 C 5.617188 -17.078125 5.65625 -16.671875 5.6875 -16.265625 L 5.828125 -14.625 L 6.25 -14.734375 C 6.488281 -14.796875 6.71875 -14.859375 6.9375 -14.921875 C 7.164062 -14.984375 7.394531 -15.054688 7.625 -15.140625 C 8.113281 -15.285156 8.59375 -15.421875 9.0625 -15.546875 C 9.539062 -15.671875 10.019531 -15.773438 10.5 -15.859375 C 11.695312 -16.085938 12.820312 -16.125 13.875 -15.96875 C 14.832031 -15.863281 15.382812 -15.34375 15.53125 -14.40625 C 15.613281 -13.863281 15.53125 -13.421875 15.28125 -13.078125 C 15.03125 -12.742188 14.757812 -12.488281 14.46875 -12.3125 C 13.738281 -11.84375 13.03125 -11.546875 12.34375 -11.421875 C 11.65625 -11.296875 10.945312 -11.179688 10.21875 -11.078125 C 9.488281 -10.984375 8.769531 -10.882812 8.0625 -10.78125 C 7.75 -10.75 7.4375 -10.707031 7.125 -10.65625 C 6.8125 -10.601562 6.492188 -10.566406 6.171875 -10.546875 L 5.84375 -10.484375 L 5.875 -10.171875 C 5.882812 -10.023438 5.894531 -9.867188 5.90625 -9.703125 C 5.925781 -9.535156 5.941406 -9.378906 5.953125 -9.234375 C 5.992188 -8.773438 6.035156 -8.3125 6.078125 -7.84375 C 6.117188 -7.382812 6.171875 -6.925781 6.234375 -6.46875 C 6.253906 -6.320312 6.316406 -6.191406 6.421875 -6.078125 C 6.535156 -5.972656 6.625 -5.890625 6.6875 -5.828125 C 6.78125 -5.773438 6.894531 -5.710938 7.03125 -5.640625 C 7.164062 -5.578125 7.3125 -5.554688 7.46875 -5.578125 C 8.664062 -5.773438 9.988281 -6.0625 11.4375 -6.4375 C 11.632812 -6.46875 11.820312 -6.515625 12 -6.578125 C 12.175781 -6.648438 12.351562 -6.71875 12.53125 -6.78125 C 12.757812 -6.863281 12.984375 -6.941406 13.203125 -7.015625 C 13.421875 -7.085938 13.632812 -7.144531 13.84375 -7.1875 Z M 13.84375 -7.1875 "/></g></g></g><g fill="#ffffff" fill-opacity="1"><g transform="translate(50.500421, 43.147456)"><g><path d="M 16.84375 -23.5 C 16.375 -22.53125 15.863281 -21.515625 15.3125 -20.453125 C 14.757812 -19.398438 14.125 -18.21875 13.40625 -16.90625 C 13.039062 -16.207031 13.101562 -15.546875 13.59375 -14.921875 C 14.5 -13.828125 15.378906 -12.710938 16.234375 -11.578125 C 17.085938 -10.453125 17.988281 -9.28125 18.9375 -8.0625 C 19.5 -7.300781 19.828125 -6.566406 19.921875 -5.859375 C 20.015625 -5.148438 19.835938 -4.582031 19.390625 -4.15625 C 18.910156 -3.644531 18.296875 -3.421875 17.546875 -3.484375 C 16.804688 -3.554688 16.101562 -3.890625 15.4375 -4.484375 C 14.851562 -4.984375 14.289062 -5.515625 13.75 -6.078125 C 13.21875 -6.640625 12.707031 -7.203125 12.21875 -7.765625 C 11.976562 -7.992188 11.753906 -8.226562 11.546875 -8.46875 C 11.335938 -8.707031 11.113281 -8.945312 10.875 -9.1875 C 10.789062 -9.289062 10.703125 -9.398438 10.609375 -9.515625 C 10.515625 -9.640625 10.414062 -9.753906 10.3125 -9.859375 L 9.71875 -10.5625 L 9.453125 -10.21875 C 9.398438 -10.1875 9.351562 -10.148438 9.3125 -10.109375 C 9.28125 -10.066406 9.238281 -10.023438 9.1875 -9.984375 C 9.113281 -9.898438 9.046875 -9.816406 8.984375 -9.734375 C 8.929688 -9.648438 8.875 -9.5625 8.8125 -9.46875 C 8.28125 -8.570312 7.75 -7.675781 7.21875 -6.78125 C 6.695312 -5.882812 6.15625 -4.992188 5.59375 -4.109375 L 4.515625 -2.25 C 4.460938 -2.15625 4.40625 -2.0625 4.34375 -1.96875 C 4.289062 -1.882812 4.238281 -1.804688 4.1875 -1.734375 C 3.894531 -1.359375 3.523438 -1.09375 3.078125 -0.9375 C 2.640625 -0.78125 2.238281 -0.789062 1.875 -0.96875 C 1.476562 -1.125 1.195312 -1.398438 1.03125 -1.796875 C 0.863281 -2.191406 0.832031 -2.617188 0.9375 -3.078125 C 1.144531 -4.015625 1.410156 -4.84375 1.734375 -5.5625 C 3.109375 -8.601562 4.351562 -11.265625 5.46875 -13.546875 C 5.65625 -13.929688 5.75 -14.285156 5.75 -14.609375 C 5.757812 -14.941406 5.582031 -15.28125 5.21875 -15.625 C 4.21875 -16.507812 3.09375 -17.582031 1.84375 -18.84375 L 1.6875 -19.03125 C 1.34375 -19.375 0.984375 -19.734375 0.609375 -20.109375 C 0.242188 -20.484375 -0.0976562 -20.867188 -0.421875 -21.265625 C -1.316406 -22.429688 -1.421875 -23.445312 -0.734375 -24.3125 C -0.378906 -24.726562 0.0507812 -24.972656 0.5625 -25.046875 C 1.175781 -25.140625 1.78125 -25.007812 2.375 -24.65625 C 3.070312 -24.238281 3.742188 -23.800781 4.390625 -23.34375 C 5.046875 -22.894531 5.691406 -22.453125 6.328125 -22.015625 C 6.566406 -21.847656 6.800781 -21.679688 7.03125 -21.515625 C 7.269531 -21.359375 7.5 -21.195312 7.71875 -21.03125 C 7.800781 -20.988281 7.894531 -20.914062 8 -20.8125 C 8.101562 -20.71875 8.21875 -20.617188 8.34375 -20.515625 C 8.46875 -20.410156 8.582031 -20.304688 8.6875 -20.203125 L 8.984375 -19.921875 L 10.28125 -21.90625 C 10.75 -22.644531 11.207031 -23.347656 11.65625 -24.015625 C 12.113281 -24.691406 12.570312 -25.367188 13.03125 -26.046875 C 13.414062 -26.617188 13.859375 -27.117188 14.359375 -27.546875 C 15.015625 -28.097656 15.722656 -28.175781 16.484375 -27.78125 C 17.285156 -27.394531 17.632812 -26.785156 17.53125 -25.953125 C 17.425781 -24.992188 17.195312 -24.175781 16.84375 -23.5 Z M 16.84375 -23.5 "/></g></g></g><g fill="#ffffff" fill-opacity="1"><g transform="translate(82.795262, 42.329795)"><g><path d="M 25.3125 -2.578125 C 25.320312 -2.429688 25.335938 -2.289062 25.359375 -2.15625 C 25.253906 -1.363281 25.003906 -0.710938 24.609375 -0.203125 C 24.222656 0.296875 23.71875 0.597656 23.09375 0.703125 C 22.476562 0.828125 21.898438 0.738281 21.359375 0.4375 C 20.816406 0.144531 20.40625 -0.300781 20.125 -0.90625 C 19.832031 -1.5625 19.609375 -2.375 19.453125 -3.34375 C 19.398438 -3.695312 19.28125 -4.019531 19.09375 -4.3125 C 18.90625 -4.613281 18.535156 -4.804688 17.984375 -4.890625 C 17.359375 -4.984375 16.734375 -5.070312 16.109375 -5.15625 C 15.484375 -5.25 14.863281 -5.34375 14.25 -5.4375 C 13.425781 -5.570312 12.597656 -5.703125 11.765625 -5.828125 C 10.929688 -5.953125 10.09375 -6.070312 9.25 -6.1875 C 9.039062 -6.207031 8.796875 -6.140625 8.515625 -5.984375 C 8.234375 -5.828125 8.015625 -5.664062 7.859375 -5.5 C 7.660156 -5.207031 7.460938 -4.910156 7.265625 -4.609375 C 7.066406 -4.316406 6.878906 -4.023438 6.703125 -3.734375 C 6.515625 -3.453125 6.320312 -3.160156 6.125 -2.859375 C 5.925781 -2.554688 5.710938 -2.257812 5.484375 -1.96875 C 4.578125 -0.738281 3.613281 -0.425781 2.59375 -1.03125 C 2.1875 -1.238281 1.878906 -1.617188 1.671875 -2.171875 C 1.460938 -2.722656 1.492188 -3.328125 1.765625 -3.984375 C 2.785156 -6.253906 4.050781 -8.8125 5.5625 -11.65625 C 6.53125 -13.46875 7.710938 -15.5 9.109375 -17.75 C 9.503906 -18.382812 9.941406 -19.050781 10.421875 -19.75 C 10.910156 -20.445312 11.425781 -21.125 11.96875 -21.78125 C 12.550781 -22.445312 13.351562 -23 14.375 -23.4375 C 15.113281 -23.78125 15.8125 -23.914062 16.46875 -23.84375 C 17.601562 -23.71875 18.484375 -22.976562 19.109375 -21.625 C 20.316406 -18.914062 21.476562 -16.109375 22.59375 -13.203125 C 23.707031 -10.304688 24.546875 -7.285156 25.109375 -4.140625 C 25.160156 -3.859375 25.203125 -3.582031 25.234375 -3.3125 C 25.273438 -3.050781 25.300781 -2.804688 25.3125 -2.578125 Z M 11.75 -11.4375 L 17.8125 -10.78125 L 15.125 -18.234375 Z M 11.75 -11.4375 "/></g></g></g><g fill="#ffffff" fill-opacity="1"><g transform="translate(119.029906, 42.855158)"><g><path d="M 28.46875 -12.203125 C 28.738281 -11.078125 28.84375 -9.894531 28.78125 -8.65625 C 28.726562 -7.988281 28.523438 -7.429688 28.171875 -6.984375 C 27.816406 -6.546875 27.351562 -6.265625 26.78125 -6.140625 C 26.28125 -6.023438 25.753906 -6.082031 25.203125 -6.3125 C 24.660156 -6.550781 24.265625 -7 24.015625 -7.65625 C 23.203125 -9.644531 22.46875 -12.003906 21.8125 -14.734375 C 21.601562 -15.472656 21.441406 -16.210938 21.328125 -16.953125 C 21.210938 -17.703125 21.085938 -18.441406 20.953125 -19.171875 C 20.890625 -19.515625 20.832031 -19.863281 20.78125 -20.21875 C 20.726562 -20.570312 20.671875 -20.925781 20.609375 -21.28125 C 20.578125 -21.457031 20.523438 -21.648438 20.453125 -21.859375 C 20.378906 -22.066406 20.265625 -22.28125 20.109375 -22.5 L 19.671875 -23.125 L 19.390625 -22.09375 C 19.367188 -21.988281 19.34375 -21.875 19.3125 -21.75 C 19.289062 -21.632812 19.269531 -21.523438 19.25 -21.421875 C 19.175781 -20.960938 19.101562 -20.507812 19.03125 -20.0625 C 18.96875 -19.625 18.894531 -19.175781 18.8125 -18.71875 C 18.6875 -17.945312 18.5625 -17.175781 18.4375 -16.40625 C 18.320312 -15.632812 18.191406 -14.875 18.046875 -14.125 L 18.046875 -13.984375 C 17.960938 -13.554688 17.878906 -13.117188 17.796875 -12.671875 C 17.710938 -12.222656 17.597656 -11.785156 17.453125 -11.359375 C 17.023438 -10.222656 16.3125 -9.539062 15.3125 -9.3125 C 14.332031 -9.101562 13.421875 -9.410156 12.578125 -10.234375 C 12.085938 -10.671875 11.644531 -11.148438 11.25 -11.671875 C 10.863281 -12.203125 10.492188 -12.742188 10.140625 -13.296875 C 9.722656 -13.890625 9.3125 -14.488281 8.90625 -15.09375 C 8.5 -15.707031 8.097656 -16.320312 7.703125 -16.9375 C 7.515625 -17.226562 7.316406 -17.519531 7.109375 -17.8125 C 6.898438 -18.113281 6.703125 -18.425781 6.515625 -18.75 C 6.410156 -18.882812 6.285156 -19.03125 6.140625 -19.1875 C 5.992188 -19.34375 5.8125 -19.492188 5.59375 -19.640625 L 5.015625 -19.96875 L 5.078125 -18.6875 C 5.085938 -18.476562 5.097656 -18.257812 5.109375 -18.03125 C 5.117188 -17.800781 5.132812 -17.578125 5.15625 -17.359375 C 5.207031 -16.535156 5.265625 -15.710938 5.328125 -14.890625 C 5.390625 -14.066406 5.445312 -13.242188 5.5 -12.421875 C 5.59375 -11.265625 5.679688 -10.113281 5.765625 -8.96875 C 5.859375 -7.832031 5.9375 -6.691406 6 -5.546875 C 6.050781 -5.160156 6.082031 -4.773438 6.09375 -4.390625 C 6.113281 -4.003906 6.097656 -3.628906 6.046875 -3.265625 C 6.003906 -2.578125 5.769531 -1.992188 5.34375 -1.515625 C 4.914062 -1.046875 4.394531 -0.769531 3.78125 -0.6875 C 3.132812 -0.582031 2.546875 -0.707031 2.015625 -1.0625 C 1.484375 -1.425781 1.109375 -1.921875 0.890625 -2.546875 C 0.492188 -3.835938 0.28125 -5.039062 0.25 -6.15625 C 0.15625 -11.007812 0.15625 -15.96875 0.25 -21.03125 C 0.257812 -22.195312 0.457031 -23.375 0.84375 -24.5625 C 1.207031 -25.582031 1.8125 -26.25 2.65625 -26.5625 C 2.78125 -26.601562 2.90625 -26.632812 3.03125 -26.65625 C 3.738281 -26.789062 4.453125 -26.632812 5.171875 -26.1875 C 6.316406 -25.457031 7.582031 -24.363281 8.96875 -22.90625 C 9.394531 -22.457031 9.8125 -21.972656 10.21875 -21.453125 C 10.625 -20.929688 11.035156 -20.414062 11.453125 -19.90625 C 11.640625 -19.65625 11.820312 -19.40625 12 -19.15625 C 12.1875 -18.914062 12.378906 -18.671875 12.578125 -18.421875 L 13.046875 -17.84375 L 13.21875 -18.578125 C 13.269531 -18.835938 13.320312 -19.109375 13.375 -19.390625 C 13.425781 -19.671875 13.488281 -19.945312 13.5625 -20.21875 C 13.664062 -20.820312 13.773438 -21.410156 13.890625 -21.984375 C 14.003906 -22.566406 14.132812 -23.144531 14.28125 -23.71875 C 14.601562 -24.988281 15.023438 -26.3125 15.546875 -27.6875 C 15.796875 -28.363281 16.164062 -29.019531 16.65625 -29.65625 C 17.488281 -30.757812 18.453125 -31.300781 19.546875 -31.28125 C 20.660156 -31.257812 21.609375 -30.671875 22.390625 -29.515625 C 23.753906 -27.535156 24.882812 -24.984375 25.78125 -21.859375 L 26.3125 -19.953125 C 26.695312 -18.691406 27.078125 -17.40625 27.453125 -16.09375 C 27.828125 -14.789062 28.164062 -13.492188 28.46875 -12.203125 Z M 28.46875 -12.203125 "/></g></g></g><g fill="#ffffff" fill-opacity="1"><g transform="translate(151.409841, 42.235391)"><g><path d="M 21.421875 -21.3125 C 22.085938 -21.03125 22.582031 -20.613281 22.90625 -20.0625 C 23.226562 -19.507812 23.316406 -18.914062 23.171875 -18.28125 C 23.023438 -17.65625 22.6875 -17.15625 22.15625 -16.78125 C 21.625 -16.40625 21.003906 -16.238281 20.296875 -16.28125 C 19.941406 -16.300781 19.59375 -16.332031 19.25 -16.375 C 18.90625 -16.425781 18.5625 -16.476562 18.21875 -16.53125 C 18.039062 -16.550781 17.875 -16.570312 17.71875 -16.59375 C 17.5625 -16.613281 17.398438 -16.632812 17.234375 -16.65625 L 14.25 -17.046875 L 14.265625 -16.65625 C 14.253906 -16.238281 14.253906 -15.832031 14.265625 -15.4375 C 14.285156 -15.039062 14.289062 -14.644531 14.28125 -14.25 C 14.289062 -13.375 14.296875 -12.515625 14.296875 -11.671875 C 14.296875 -10.828125 14.289062 -9.992188 14.28125 -9.171875 C 14.269531 -8.253906 14.242188 -7.273438 14.203125 -6.234375 C 14.171875 -5.203125 14.101562 -4.144531 14 -3.0625 C 13.914062 -2.289062 13.65625 -1.5 13.21875 -0.6875 C 12.644531 0.332031 11.765625 0.773438 10.578125 0.640625 C 9.378906 0.453125 8.648438 -0.191406 8.390625 -1.296875 C 8.128906 -2.378906 8.066406 -3.425781 8.203125 -4.4375 C 8.390625 -5.851562 8.585938 -7.257812 8.796875 -8.65625 C 9.003906 -10.0625 9.21875 -11.460938 9.4375 -12.859375 C 9.507812 -13.421875 9.585938 -13.976562 9.671875 -14.53125 C 9.765625 -15.09375 9.863281 -15.660156 9.96875 -16.234375 C 9.976562 -16.316406 9.984375 -16.46875 9.984375 -16.6875 L 10.015625 -17.25 L 8.96875 -17.5 C 8.613281 -17.582031 8.253906 -17.664062 7.890625 -17.75 C 7.523438 -17.832031 7.164062 -17.914062 6.8125 -18 C 6.613281 -18.050781 6.4375 -18.097656 6.28125 -18.140625 C 6.125 -18.179688 5.960938 -18.238281 5.796875 -18.3125 C 4.460938 -18.800781 3.847656 -19.597656 3.953125 -20.703125 C 4.054688 -21.835938 4.84375 -22.519531 6.3125 -22.75 L 6.421875 -22.75 C 6.492188 -22.78125 6.539062 -22.789062 6.5625 -22.78125 C 7.238281 -22.738281 7.925781 -22.703125 8.625 -22.671875 C 9.332031 -22.648438 10.023438 -22.640625 10.703125 -22.640625 C 11.816406 -22.609375 12.929688 -22.570312 14.046875 -22.53125 C 15.171875 -22.488281 16.28125 -22.394531 17.375 -22.25 C 17.9375 -22.175781 18.488281 -22.085938 19.03125 -21.984375 C 19.570312 -21.878906 20.117188 -21.75 20.671875 -21.59375 C 20.953125 -21.507812 21.203125 -21.414062 21.421875 -21.3125 Z M 21.421875 -21.3125 "/></g></g></g><g fill="#ffffff" fill-opacity="1"><g transform="translate(190.686074, 44.96115)"><g><path d="M 18.875 -24.78125 C 19.300781 -23.945312 19.507812 -23.257812 19.5 -22.71875 C 19.363281 -18.28125 19.179688 -14.316406 18.953125 -10.828125 C 18.898438 -10.253906 18.785156 -9.675781 18.609375 -9.09375 C 18.429688 -8.507812 18.238281 -7.945312 18.03125 -7.40625 C 17.144531 -4.976562 15.585938 -3.328125 13.359375 -2.453125 C 11.109375 -1.546875 8.804688 -1.675781 6.453125 -2.84375 C 2.890625 -4.613281 0.804688 -7.578125 0.203125 -11.734375 C 0.148438 -12.046875 0.113281 -12.351562 0.09375 -12.65625 C 0.0703125 -12.957031 0.046875 -13.257812 0.015625 -13.5625 C 0.00390625 -13.71875 -0.00390625 -13.863281 -0.015625 -14 C -0.0351562 -14.144531 -0.0507812 -14.28125 -0.0625 -14.40625 L -0.09375 -14.765625 L -0.21875 -14.75 L -0.234375 -15.890625 C -0.234375 -16.703125 -0.238281 -17.507812 -0.25 -18.3125 C -0.269531 -19.113281 -0.285156 -19.921875 -0.296875 -20.734375 C -0.304688 -21.035156 -0.257812 -21.394531 -0.15625 -21.8125 C 0.0703125 -22.8125 0.640625 -23.394531 1.546875 -23.5625 C 1.972656 -23.625 2.375 -23.535156 2.75 -23.296875 C 3.132812 -23.054688 3.410156 -22.703125 3.578125 -22.234375 C 3.890625 -21.515625 4.15625 -20.609375 4.375 -19.515625 C 4.507812 -18.785156 4.644531 -18.054688 4.78125 -17.328125 C 4.914062 -16.597656 5.054688 -15.875 5.203125 -15.15625 C 5.285156 -14.695312 5.367188 -14.226562 5.453125 -13.75 C 5.546875 -13.28125 5.632812 -12.816406 5.71875 -12.359375 C 6.125 -10.253906 7.207031 -8.734375 8.96875 -7.796875 C 10.132812 -7.191406 11.140625 -7.09375 11.984375 -7.5 C 12.753906 -7.882812 13.238281 -8.617188 13.4375 -9.703125 C 13.632812 -10.804688 13.773438 -11.921875 13.859375 -13.046875 C 13.953125 -14.171875 14.019531 -15.28125 14.0625 -16.375 L 14.109375 -16.890625 C 14.128906 -17.378906 14.132812 -17.863281 14.125 -18.34375 C 14.125 -18.832031 14.117188 -19.316406 14.109375 -19.796875 C 14.097656 -20.191406 14.09375 -20.601562 14.09375 -21.03125 C 14.101562 -21.457031 14.109375 -21.863281 14.109375 -22.25 C 14.140625 -23.082031 14.296875 -23.851562 14.578125 -24.5625 C 14.941406 -25.46875 15.644531 -25.9375 16.6875 -25.96875 C 17.6875 -26.03125 18.414062 -25.632812 18.875 -24.78125 Z M 18.875 -24.78125 "/></g></g></g><g clip-path="url(#a796d76408)"><g clip-path="url(#183b7018be)"><g clip-path="url(#3842ceaac8)"><path fill="#65c7ff" d="M 218.257812 8.578125 L 257.398438 14.882812 L 251.234375 53.125 L 212.097656 46.816406 Z M 218.257812 8.578125 " fill-opacity="1" fill-rule="nonzero"/></g></g></g><g clip-path="url(#bd4e25714a)"><g clip-path="url(#2dd941e084)"><g clip-path="url(#e0bdc2358d)"><path fill="#a175f8" d="M 248.085938 14.328125 L 287.566406 10.726562 L 291.085938 49.300781 L 251.605469 52.902344 Z M 248.085938 14.328125 " fill-opacity="1" fill-rule="nonzero"/></g></g></g><g fill="#ffffff" fill-opacity="1"><g transform="translate(222.227, 42.471284)"><g><path d="M 21.84375 -5.90625 C 21.695312 -3.832031 20.820312 -2.109375 19.21875 -0.734375 C 18.550781 -0.148438 17.925781 0.238281 17.34375 0.4375 C 12.71875 2.09375 8.578125 1.96875 4.921875 0.0625 C 4.171875 -0.34375 3.445312 -0.953125 2.75 -1.765625 C 2.132812 -2.460938 2.054688 -3.3125 2.515625 -4.3125 C 2.773438 -4.976562 2.972656 -5.679688 3.109375 -6.421875 C 3.335938 -7.742188 3.566406 -9.0625 3.796875 -10.375 C 4.023438 -11.6875 4.257812 -12.992188 4.5 -14.296875 C 4.6875 -15.347656 4.867188 -16.40625 5.046875 -17.46875 C 5.222656 -18.53125 5.40625 -19.582031 5.59375 -20.625 L 5.625 -20.75 C 5.675781 -20.988281 5.691406 -21.242188 5.671875 -21.515625 C 5.660156 -21.785156 5.488281 -22.070312 5.15625 -22.375 C 4.957031 -22.53125 4.851562 -22.734375 4.84375 -22.984375 C 4.875 -23.253906 5.015625 -23.484375 5.265625 -23.671875 L 5.609375 -23.921875 C 6.015625 -24.203125 6.441406 -24.488281 6.890625 -24.78125 C 7.347656 -25.082031 7.800781 -25.242188 8.25 -25.265625 C 10.832031 -25.523438 13.296875 -25.515625 15.640625 -25.234375 C 15.785156 -25.222656 15.929688 -25.207031 16.078125 -25.1875 C 18.921875 -24.738281 20.742188 -23.15625 21.546875 -20.4375 C 22.273438 -18 21.617188 -15.992188 19.578125 -14.421875 C 19.484375 -14.359375 19.375 -14.289062 19.25 -14.21875 C 19.125 -14.15625 18.988281 -14.085938 18.84375 -14.015625 C 18.769531 -13.984375 18.695312 -13.945312 18.625 -13.90625 C 18.550781 -13.863281 18.476562 -13.828125 18.40625 -13.796875 L 17.984375 -13.5625 L 18.3125 -13.234375 C 18.4375 -13.117188 18.550781 -13.003906 18.65625 -12.890625 C 18.757812 -12.785156 18.859375 -12.6875 18.953125 -12.59375 C 19.140625 -12.375 19.3125 -12.179688 19.46875 -12.015625 C 19.625 -11.847656 19.78125 -11.675781 19.9375 -11.5 C 21.34375 -9.875 21.976562 -8.007812 21.84375 -5.90625 Z M 9.65625 -16.765625 L 9.59375 -16.328125 L 10.03125 -16.359375 C 10.25 -16.367188 10.453125 -16.382812 10.640625 -16.40625 C 10.835938 -16.4375 11.03125 -16.457031 11.21875 -16.46875 C 11.664062 -16.488281 12.101562 -16.519531 12.53125 -16.5625 C 12.957031 -16.601562 13.375 -16.664062 13.78125 -16.75 C 14.4375 -16.894531 14.921875 -17.0625 15.234375 -17.25 C 15.554688 -17.4375 15.804688 -17.609375 15.984375 -17.765625 L 16.171875 -17.953125 C 16.335938 -18.171875 16.503906 -18.421875 16.671875 -18.703125 C 16.835938 -18.984375 16.890625 -19.300781 16.828125 -19.65625 C 16.773438 -19.976562 16.570312 -20.265625 16.21875 -20.515625 C 15.84375 -20.773438 15.273438 -21.023438 14.515625 -21.265625 C 14.160156 -21.335938 13.8125 -21.394531 13.46875 -21.4375 C 13.125 -21.488281 12.707031 -21.492188 12.21875 -21.453125 C 11.726562 -21.421875 11.097656 -21.332031 10.328125 -21.1875 L 10.0625 -21.140625 L 10.03125 -20.890625 C 9.96875 -20.398438 9.925781 -20 9.90625 -19.6875 C 9.894531 -19.375 9.878906 -19.078125 9.859375 -18.796875 C 9.835938 -18.523438 9.8125 -18.234375 9.78125 -17.921875 C 9.75 -17.609375 9.707031 -17.222656 9.65625 -16.765625 Z M 16.828125 -5.953125 C 17.140625 -6.992188 16.890625 -8.023438 16.078125 -9.046875 C 15.566406 -9.722656 14.992188 -10.222656 14.359375 -10.546875 C 13.722656 -10.867188 13.0625 -11.082031 12.375 -11.1875 C 11.695312 -11.300781 11.003906 -11.375 10.296875 -11.40625 L 9.65625 -11.484375 C 9.4375 -11.492188 9.238281 -11.378906 9.0625 -11.140625 C 8.894531 -10.910156 8.796875 -10.722656 8.765625 -10.578125 C 8.710938 -10.253906 8.660156 -9.925781 8.609375 -9.59375 C 8.554688 -9.257812 8.503906 -8.929688 8.453125 -8.609375 L 8.34375 -7.90625 L 8.296875 -7.546875 C 8.285156 -7.460938 8.273438 -7.382812 8.265625 -7.3125 C 8.253906 -7.25 8.242188 -7.1875 8.234375 -7.125 C 8.191406 -6.832031 8.144531 -6.539062 8.09375 -6.25 C 8.050781 -5.96875 8 -5.671875 7.9375 -5.359375 C 7.757812 -4.535156 8.09375 -4.015625 8.9375 -3.796875 C 9.207031 -3.734375 9.472656 -3.679688 9.734375 -3.640625 C 11.335938 -3.378906 13.003906 -3.519531 14.734375 -4.0625 C 15.828125 -4.394531 16.523438 -5.023438 16.828125 -5.953125 Z M 16.828125 -5.953125 "/></g></g></g><g fill="#ffffff" fill-opacity="1"><g transform="translate(263.276072, 47.033293)"><g><path d="M 13.796875 -7.28125 C 14.179688 -7.34375 14.609375 -7.320312 15.078125 -7.21875 C 15.546875 -7.125 15.9375 -6.816406 16.25 -6.296875 C 16.75 -5.472656 16.648438 -4.59375 15.953125 -3.65625 C 15.523438 -3.101562 15.007812 -2.632812 14.40625 -2.25 C 11.757812 -0.632812 8.765625 0 5.421875 -0.34375 C 3.460938 -0.539062 2.09375 -1.664062 1.3125 -3.71875 C 0.8125 -5.019531 0.523438 -6.347656 0.453125 -7.703125 C 0.390625 -9.054688 0.390625 -10.34375 0.453125 -11.5625 C 0.503906 -12.5625 0.566406 -13.5625 0.640625 -14.5625 C 0.710938 -15.570312 0.785156 -16.578125 0.859375 -17.578125 C 0.910156 -18.066406 0.945312 -18.539062 0.96875 -19 C 1 -19.46875 1.039062 -19.945312 1.09375 -20.4375 L 1.109375 -20.5625 C 1.117188 -20.695312 1.125 -20.835938 1.125 -20.984375 C 1.132812 -21.128906 1.113281 -21.269531 1.0625 -21.40625 C 0.707031 -22.570312 1.132812 -23.566406 2.34375 -24.390625 C 2.5625 -24.535156 2.789062 -24.675781 3.03125 -24.8125 C 3.269531 -24.945312 3.519531 -25.046875 3.78125 -25.109375 L 5.140625 -25.453125 C 6.117188 -25.660156 7.113281 -25.882812 8.125 -26.125 C 9.144531 -26.363281 10.160156 -26.554688 11.171875 -26.703125 C 11.253906 -26.710938 11.335938 -26.71875 11.421875 -26.71875 C 12.429688 -26.820312 13.28125 -26.617188 13.96875 -26.109375 C 14.582031 -25.660156 14.9375 -25.066406 15.03125 -24.328125 C 15.132812 -23.515625 14.890625 -22.804688 14.296875 -22.203125 C 13.710938 -21.597656 12.90625 -21.21875 11.875 -21.0625 C 11.207031 -20.945312 10.535156 -20.867188 9.859375 -20.828125 C 9.191406 -20.785156 8.523438 -20.753906 7.859375 -20.734375 L 7.015625 -20.6875 C 6.597656 -20.664062 6.269531 -20.632812 6.03125 -20.59375 C 5.800781 -20.5625 5.617188 -20.46875 5.484375 -20.3125 C 5.335938 -20.15625 5.265625 -19.957031 5.265625 -19.71875 C 5.273438 -19.476562 5.300781 -19.160156 5.34375 -18.765625 C 5.382812 -18.347656 5.421875 -17.929688 5.453125 -17.515625 C 5.492188 -17.109375 5.535156 -16.703125 5.578125 -16.296875 L 5.734375 -14.671875 L 6.15625 -14.796875 C 6.382812 -14.859375 6.609375 -14.921875 6.828125 -14.984375 C 7.046875 -15.046875 7.273438 -15.117188 7.515625 -15.203125 C 7.992188 -15.347656 8.472656 -15.484375 8.953125 -15.609375 C 9.429688 -15.742188 9.90625 -15.851562 10.375 -15.9375 C 11.582031 -16.164062 12.707031 -16.210938 13.75 -16.078125 C 14.707031 -15.972656 15.265625 -15.453125 15.421875 -14.515625 C 15.515625 -13.972656 15.4375 -13.53125 15.1875 -13.1875 C 14.9375 -12.851562 14.664062 -12.597656 14.375 -12.421875 C 13.664062 -11.953125 12.957031 -11.648438 12.25 -11.515625 C 11.5625 -11.390625 10.859375 -11.269531 10.140625 -11.15625 C 9.421875 -11.050781 8.695312 -10.945312 7.96875 -10.84375 C 7.65625 -10.8125 7.34375 -10.769531 7.03125 -10.71875 C 6.726562 -10.664062 6.414062 -10.625 6.09375 -10.59375 L 5.78125 -10.53125 L 5.8125 -10.203125 C 5.820312 -10.054688 5.832031 -9.898438 5.84375 -9.734375 C 5.863281 -9.566406 5.878906 -9.410156 5.890625 -9.265625 C 5.941406 -8.816406 5.988281 -8.359375 6.03125 -7.890625 C 6.070312 -7.429688 6.128906 -6.972656 6.203125 -6.515625 C 6.210938 -6.359375 6.269531 -6.222656 6.375 -6.109375 C 6.488281 -6.003906 6.582031 -5.921875 6.65625 -5.859375 C 6.738281 -5.804688 6.847656 -5.75 6.984375 -5.6875 C 7.128906 -5.632812 7.28125 -5.613281 7.4375 -5.625 C 8.632812 -5.820312 9.953125 -6.113281 11.390625 -6.5 C 11.585938 -6.539062 11.773438 -6.59375 11.953125 -6.65625 C 12.128906 -6.726562 12.300781 -6.796875 12.46875 -6.859375 C 12.707031 -6.941406 12.9375 -7.019531 13.15625 -7.09375 C 13.382812 -7.175781 13.597656 -7.238281 13.796875 -7.28125 Z M 13.796875 -7.28125 "/></g></g></g></svg>